<svg width="18" height="12" viewBox="0 0 18 12" fill="none" xmlns="http://www.w3.org/2000/svg">
<path fill-rule="evenodd" clip-rule="evenodd" d="M17.7501 5.99981C17.7501 5.83405 17.6843 5.67508 17.5671 5.55787C17.4499 5.44066 17.2909 5.37481 17.1251 5.37481H2.38389L6.31764 1.44231C6.37575 1.3842 6.42185 1.31522 6.45329 1.23929C6.48474 1.16337 6.50093 1.08199 6.50093 0.999813C6.50093 0.917633 6.48474 0.836258 6.45329 0.760334C6.42185 0.684409 6.37575 0.615423 6.31764 0.557313C6.25953 0.499203 6.19054 0.453108 6.11462 0.421659C6.0387 0.39021 5.95732 0.374023 5.87514 0.374023C5.79296 0.374023 5.71159 0.39021 5.63566 0.421659C5.55974 0.453108 5.49075 0.499203 5.43264 0.557313L0.432641 5.55731C0.374437 5.61537 0.328258 5.68434 0.29675 5.76027C0.265242 5.8362 0.249023 5.9176 0.249023 5.99981C0.249023 6.08202 0.265242 6.16342 0.29675 6.23935C0.328258 6.31529 0.374437 6.38426 0.432641 6.44231L5.43264 11.4423C5.49075 11.5004 5.55974 11.5465 5.63566 11.578C5.71159 11.6094 5.79296 11.6256 5.87514 11.6256C5.95732 11.6256 6.0387 11.6094 6.11462 11.578C6.19054 11.5465 6.25953 11.5004 6.31764 11.4423C6.37575 11.3842 6.42185 11.3152 6.45329 11.2393C6.48474 11.1634 6.50093 11.082 6.50093 10.9998C6.50093 10.9176 6.48474 10.8363 6.45329 10.7603C6.42185 10.6844 6.37575 10.6154 6.31764 10.5573L2.38389 6.62481H17.1251C17.2909 6.62481 17.4499 6.55897 17.5671 6.44175C17.6843 6.32454 17.7501 6.16557 17.7501 5.99981Z" fill="white"/>
</svg>
